<svg width="68" height="57" viewBox="0 0 68 57" fill="none" xmlns="http://www.w3.org/2000/svg">
<path d="M3 14.9L12.3753 22.6119C12.9943 23.1212 13.7746 23.4 14.5804 23.4H53.4194C54.2254 23.4 55.0056 23.1212 55.6246 22.6119L65 14.9M15.0556 35.3H15.09M52.9444 35.3H52.9789M20.7756 3H47.2246C49.6967 3 51.9793 4.30754 53.2055 6.42625L63.1848 23.6642C64.3741 25.7191 65 28.0447 65 30.4118V50.6C65 52.4778 63.4579 54 61.5556 54H58.1111C56.2087 54 54.6667 52.4778 54.6667 50.6V47.2H13.3333V50.6C13.3333 52.4778 11.7912 54 9.88889 54H6.44444C4.54215 54 3 52.4778 3 50.6V30.4118C3 28.0447 3.62572 25.7191 4.81533 23.6642L14.7943 6.42625C16.0208 4.30754 18.3034 3 20.7756 3ZM16.7778 35.3C16.7778 36.2387 16.0067 37 15.0556 37C14.1044 37 13.3333 36.2387 13.3333 35.3C13.3333 34.3613 14.1044 33.6 15.0556 33.6C16.0067 33.6 16.7778 34.3613 16.7778 35.3ZM54.6667 35.3C54.6667 36.2387 53.8955 37 52.9444 37C51.9934 37 51.2222 36.2387 51.2222 35.3C51.2222 34.3613 51.9934 33.6 52.9444 33.6C53.8955 33.6 54.6667 34.3613 54.6667 35.3Z" stroke="black" stroke-width="5" stroke-linecap="round" stroke-linejoin="round"/>
</svg>
