<svg width="32" height="34" viewBox="0 0 32 34" fill="none" xmlns="http://www.w3.org/2000/svg">
    <path d="M2 7.18188H30M23 7.18188L22.5264 5.82867C22.0674 4.5173 21.8378 3.86162 21.4122 3.37685C21.0363 2.94877 20.5537 2.61742 20.0084 2.41318C19.3908 2.18188 18.6652 2.18188 17.2138 2.18188H14.7862C13.3348 2.18188 12.6092 2.18188 11.9916 2.41318C11.4464 2.61742 10.9636 2.94877 10.5878 3.37685C10.1621 3.86162 9.93261 4.5173 9.47362 5.82867L9 7.18188M26.5 7.18188V24.1819C26.5 26.9822 26.5 28.3822 25.9278 29.4519C25.4245 30.3927 24.6214 31.1576 23.6335 31.6369C22.5103 32.1819 21.0403 32.1819 18.1 32.1819H13.9C10.9597 32.1819 9.48958 32.1819 8.36655 31.6369C7.3787 31.1576 6.57555 30.3927 6.07222 29.4519C5.5 28.3822 5.5 26.9822 5.5 24.1819V7.18188M19.5 13.8486V25.5152M12.5 13.8486V25.5152" stroke="white" stroke-width="3" stroke-linecap="round" stroke-linejoin="round"/>
</svg>
