<svg width="26" height="26" viewBox="0 0 26 26" fill="none" xmlns="http://www.w3.org/2000/svg">
    <path d="M22.3818 9.25925L17.1031 3.93956M22.3818 9.25925L15.7854 15.9067C14.9161 16.7828 13.861 17.4743 12.6497 17.6848C11.4266 17.8975 9.90878 17.9683 9.18493 17.2388C8.4611 16.5093 8.53131 14.9797 8.74226 13.7471C8.95118 12.5263 9.63747 11.4631 10.5067 10.587L17.1031 3.93956M22.3818 9.25925C22.3818 9.25925 26.3408 5.26948 23.7014 2.60963C21.062 -0.0502118 17.1031 3.93956 17.1031 3.93956M24.4346 12.9997C24.4346 21.6442 21.7952 24.304 13.2173 24.304C4.63937 24.304 2 21.6442 2 12.9997C2 4.35516 4.63937 1.69531 13.2173 1.69531" stroke="white" stroke-width="2.6087" stroke-linecap="round" stroke-linejoin="round"/>
</svg>
