<svg width="44" height="40" viewBox="0 0 44 40" fill="none" xmlns="http://www.w3.org/2000/svg">
<path d="M39.7778 15.6102L36.4767 31.9147C36.0693 33.9261 35.8658 34.9319 35.3342 35.6841C34.8653 36.3475 34.22 36.8699 33.4696 37.1939C32.6184 37.5614 31.5802 37.5614 29.5036 37.5614H14.4964C12.4198 37.5614 11.3815 37.5614 10.5304 37.1939C9.77993 36.8699 9.13467 36.3475 8.66587 35.6841C8.13424 34.9319 7.93062 33.9261 7.52336 31.9147L4.22222 15.6102M39.7778 15.6102H35.3333M39.7778 15.6102H42M4.22222 15.6102H2M4.22222 15.6102H8.66667M35.3333 15.6102H8.66667M35.3333 15.6102L28.6667 2.43945M8.66667 15.6102L15.3333 2.43945M15.3333 22.1956V28.7809M22 22.1956V28.7809M28.6667 22.1956V28.7809" stroke="none" stroke-width="3" stroke-linecap="round" stroke-linejoin="round"/>
</svg>
